<?xml version="1.0" encoding="utf-8"?>
<!-- Generator: Adobe Illustrator 22.1.0, SVG Export Plug-In . SVG Version: 6.00 Build 0)  -->
<svg version="1.1" id="Layer_1" xmlns="http://www.w3.org/2000/svg" xmlns:xlink="http://www.w3.org/1999/xlink" x="0px" y="0px"
	 viewBox="0 0 1000 1000" style="enable-background:new 0 0 1000 1000;" xml:space="preserve">
<style type="text/css">
	.st0{fill:#FFFFFF;}
	.st1{fill:#FB5058;}
</style>
<g>
	<g>
		<path class="st0" d="M728.4,373.1l-66.5-46.7v-63.1c0-5.2-4.4-9.4-9.8-9.4h-40.2c-5.4,0-9.8,4.2-9.8,9.4v21.1l-85.2-59.8
			c-5-3.5-11-5.2-16.9-5.2c-6,0-11.9,1.7-16.9,5.2L271.5,373.1c-6.9,4.8-11,12.4-11,20.5v300.7c0,14.3,12.5,25.8,27.9,25.8h423.1
			c15.4,0,27.9-11.6,27.9-25.8V393.6C739.4,385.6,735.3,378,728.4,373.1z"/>
		<path class="st1" d="M910,390.1c-10-37.4,0.4-83.3-18.6-116.1c-19.2-33.2-64.4-47.1-91.3-74.1c-27-27-40.8-72.1-74.1-91.3
			c-32.8-19-78.7-8.6-116.1-18.6c-36.2-9.7-70.7-41.9-109.9-41.9c-39.2,0-73.7,32.2-109.9,41.9c-37.4,10-83.3-0.4-116.1,18.6
			c-33.2,19.2-47.1,64.4-74.1,91.3c-27,27-72.1,40.8-91.3,74.1c-19,32.8-8.6,78.7-18.6,116.1c-9.7,36.2-41.9,70.7-41.9,109.9
			S80.3,573.7,90,609.9c10,37.4-0.4,83.3,18.6,116.1c19.2,33.2,64.4,47.1,91.3,74.1c27,27,40.8,72.1,74.1,91.3
			c32.8,19,78.7,8.6,116.1,18.6c36.2,9.7,70.7,41.9,109.9,41.9c39.2,0,73.7-32.2,109.9-41.9c37.4-10,83.3,0.4,116.1-18.6
			c33.2-19.2,47.1-64.4,74.1-91.3c27-27,72.1-40.8,91.3-74.1c19-32.8,8.6-78.7,18.6-116.1c9.7-36.2,41.9-70.7,41.9-109.9
			S919.7,426.3,910,390.1z M739.4,694.3c0,14.2-12.5,25.8-27.9,25.8H288.4c-15.4,0-27.9-11.5-27.9-25.8V393.6
			c0-8.1,4.1-15.7,11-20.5l211.6-148.5c5-3.5,10.9-5.2,16.9-5.2c5.9,0,11.9,1.7,16.9,5.2l85.2,59.8v-21.1c0-5.2,4.4-9.4,9.8-9.4
			h40.2c5.4,0,9.8,4.2,9.8,9.4v63.1l66.5,46.7c6.9,4.9,11,12.5,11,20.5V694.3z"/>
	</g>
	<g>
		<path class="st1" d="M399.7,523.6h-17.5v-35.9h-33.8v35.9H331v-84.7h17.4v32.3h33.8v-32.3h17.5L399.7,523.6L399.7,523.6z"/>
		<path class="st1" d="M443.9,525.5c-18.9,0-31.2-13.6-31.2-31.9c0-18.9,11-33.4,31.2-33.4c20.1,0,31,14.8,31,33.4
			C474.8,511.8,462.8,525.5,443.9,525.5z M443.9,475.2c-8.5,0-14,8.3-14,18.4c0,9.9,5.5,16.8,14,16.8c8.4,0,13.9-6.8,13.9-16.8
			C457.8,483.4,452.1,475.2,443.9,475.2z"/>
		<path class="st1" d="M539.9,523.7h-17.3v-3.9c-3.7,3.5-9.6,5.6-14.4,5.6c-14.8,0-22.5-9.2-22.5-21.3V462H503v38.6
			c0,6.4,3.1,9.2,8.8,9.2c5.4,0,10.9-2.6,10.9-10.1V462H540L539.9,523.7L539.9,523.7z"/>
		<path class="st1" d="M578.2,525.6c-11,0-19.9-3.4-27.5-9.7l9.8-11.3c6.1,5.1,12.9,6.3,17.6,6.3c6.4,0,8.6-2.2,8.6-4.9
			c0-1.5-2.1-3.6-7.3-4.8l-10.8-2.6c-8-1.8-16.7-7.2-16.7-17.9c0-11.8,10.8-20.5,26-20.5c11.3,0,19.4,3.3,25.6,8.6l-9.8,11.3
			c-4.7-3.6-9.3-5.3-15-5.3c-6.1,0-8.9,2.7-8.9,5.3c0,1,0.3,2.9,5.5,4.2l11.3,2.7c8.9,2.2,18,6.6,18,18.7
			C604.7,517.2,595.6,525.6,578.2,525.6z"/>
		<path class="st1" d="M673,498.3h-42c0.4,7,6.7,12.3,14.3,12.3c5.4,0,10-1.7,14-5.4l9.1,11.2c-6.2,5.9-13.5,9.1-23,9.1
			c-20.6,0-32-14.7-32-32.9c0-17.8,10.9-32.3,30.1-32.3c21.3,0,31,16.1,29.8,35.3L673,498.3z M656.2,486.1c0-6.6-5.5-11.4-12.6-11.4
			c-6.7,0-11.7,5.3-12.4,11.4H656.2z"/>
		<path class="st1" d="M399.7,633.7h-17.5v-35.9h-33.8v35.9H331V549h17.4v32.3h33.8V549h17.5L399.7,633.7L399.7,633.7z"/>
		<path class="st1" d="M443.9,635.5c-18.9,0-31.2-13.6-31.2-31.9c0-18.9,11-33.4,31.2-33.4c20.1,0,31,14.8,31,33.4
			C474.8,621.8,462.8,635.5,443.9,635.5z M443.9,585.2c-8.5,0-14,8.3-14,18.4c0,9.9,5.5,16.8,14,16.8c8.4,0,13.9-6.8,13.9-16.8
			C457.8,593.5,452.1,585.2,443.9,585.2z"/>
		<path class="st1" d="M539.9,633.8h-17.3v-3.9c-3.7,3.5-9.6,5.6-14.4,5.6c-14.8,0-22.5-9.2-22.5-21.3v-42.1H503v38.6
			c0,6.4,3.1,9.2,8.8,9.2c5.4,0,10.9-2.6,10.9-10.1v-37.7H540L539.9,633.8L539.9,633.8z"/>
		<path class="st1" d="M578.2,635.6c-11,0-19.9-3.4-27.5-9.7l9.8-11.3c6.1,5.1,12.9,6.3,17.6,6.3c6.4,0,8.6-2.2,8.6-4.9
			c0-1.5-2.1-3.6-7.3-4.8l-10.8-2.6c-8-1.8-16.7-7.2-16.7-17.9c0-11.8,10.8-20.5,26-20.5c11.3,0,19.4,3.3,25.6,8.6l-9.8,11.3
			c-4.7-3.6-9.3-5.3-15-5.3c-6.1,0-8.9,2.7-8.9,5.3c0,1,0.3,2.9,5.5,4.2l11.3,2.7c8.9,2.2,18,6.6,18,18.7
			C604.7,627.3,595.6,635.6,578.2,635.6z"/>
		<path class="st1" d="M673,608.4h-42c0.4,7,6.7,12.3,14.3,12.3c5.4,0,10-1.7,14-5.4l9.1,11.2c-6.2,5.9-13.5,9.1-23,9.1
			c-20.6,0-32-14.7-32-32.9c0-17.8,10.9-32.3,30.1-32.3c21.3,0,31,16.1,29.8,35.3L673,608.4z M656.2,596.2c0-6.6-5.5-11.4-12.6-11.4
			c-6.7,0-11.7,5.3-12.4,11.4H656.2z"/>
	</g>
</g>
</svg>
